<?xml version="1.0" standalone="no"?>
<!DOCTYPE svg PUBLIC "-//W3C//DTD SVG 20010904//EN"
 "http://www.w3.org/TR/2001/REC-SVG-20010904/DTD/svg10.dtd">
<svg version="1.0" xmlns="http://www.w3.org/2000/svg"
 width="600.000000pt" height="600.000000pt" viewBox="0 0 600.000000 600.000000"
 preserveAspectRatio="xMidYMid meet">
<metadata>
Created by potrace 1.11, written by Peter Selinger 2001-2013
</metadata>
<g transform="translate(0.000000,600.000000) scale(0.100000,-0.100000)"
fill="#000000" stroke="none">
<path d="M0 3000 l0 -3000 3000 0 3000 0 0 3000 0 3000 -3000 0 -3000 0 0
-3000z m5440 460 l0 -370 -56 0 c-47 0 -57 3 -61 19 -5 19 -5 19 -38 0 -80
-48 -201 -33 -259 31 -45 50 -59 116 -54 256 4 135 27 191 92 229 56 33 162
35 219 5 l37 -20 0 110 0 110 60 0 60 0 0 -370z m-671 294 c59 -17 123 -70
151 -124 41 -80 50 -235 20 -342 -20 -69 -70 -130 -134 -163 -56 -28 -67 -30
-203 -34 l-143 -3 0 341 0 341 128 0 c87 0 145 -5 181 -16z m-1459 -1341 c0
-158 -4 -274 -11 -298 -37 -133 -237 -181 -346 -82 -36 33 -79 135 -64 150 5
5 33 11 63 14 l55 5 6 -31 c9 -41 58 -91 90 -91 36 0 67 30 77 75 5 22 10 127
10 233 l0 192 -80 0 -80 0 0 45 0 45 140 0 140 0 0 -257z m471 102 c60 -42 91
-106 97 -200 l5 -75 -187 0 -186 0 0 -27 c0 -41 36 -106 69 -126 55 -32 142
-11 171 42 12 24 28 26 83 10 44 -12 45 -22 12 -71 -69 -102 -277 -117 -378
-27 -58 50 -81 114 -82 224 0 98 17 161 58 210 48 59 95 76 204 73 83 -3 95
-6 134 -33z m532 6 c58 -36 92 -121 48 -121 -10 0 -32 -3 -49 -6 -27 -5 -32
-2 -46 25 -31 58 -147 65 -188 10 -36 -48 -8 -72 127 -108 146 -40 190 -81
190 -176 -1 -95 -68 -149 -197 -162 -96 -9 -175 11 -220 56 -33 34 -58 85 -46
97 3 2 27 7 54 10 47 5 50 4 66 -25 22 -40 59 -54 130 -49 67 5 98 27 98 69 0
38 -28 55 -138 86 -155 44 -200 87 -189 181 6 56 31 91 88 120 39 21 55 23
139 20 78 -3 102 -8 133 -27z m530 0 c58 -36 92 -121 48 -121 -10 0 -32 -3
-49 -6 -27 -5 -32 -2 -46 25 -31 58 -147 65 -188 10 -36 -48 -8 -72 127 -108
146 -40 190 -81 190 -176 -1 -95 -68 -149 -197 -162 -96 -9 -175 11 -220 56
-33 34 -58 85 -46 97 3 2 27 7 54 10 47 5 50 4 66 -25 22 -40 59 -54 130 -49
67 5 98 27 98 69 0 38 -28 55 -138 86 -155 44 -200 87 -189 181 6 56 31 91 88
120 39 21 55 23 139 20 78 -3 102 -8 133 -27z m518 -6 c60 -42 91 -106 97
-200 l5 -75 -187 0 -186 0 0 -27 c0 -41 36 -106 69 -126 55 -32 142 -11 171
42 12 24 28 26 83 10 44 -12 45 -22 12 -71 -69 -102 -277 -117 -378 -27 -58
50 -81 114 -82 224 0 98 17 161 58 210 48 59 95 76 204 73 83 -3 95 -6 134
-33z m-1301 -995 c0 -60 1 -110 3 -110 1 0 20 9 42 20 27 14 59 20 105 20 85
0 127 -22 158 -80 21 -42 22 -56 22 -263 l0 -218 -57 3 -58 3 -5 205 c-3 113
-9 213 -14 223 -29 61 -138 45 -179 -26 -8 -15 -14 -87 -17 -212 l-5 -190 -57
-3 -58 -3 0 371 0 370 60 0 60 0 0 -110z m-970 -10 l0 -70 105 0 105 0 0 -45
0 -45 -105 0 -105 0 0 -163 c0 -217 -3 -212 137 -203 l104 6 -3 -42 c-3 -37
-7 -43 -33 -51 -16 -5 -75 -9 -130 -10 -81 -2 -106 1 -128 16 -57 37 -62 55
-65 259 l-4 188 -39 0 -39 0 0 45 0 45 43 0 44 0 12 70 13 70 44 0 44 0 0 -70z
m520 0 l0 -70 105 0 105 0 0 -45 0 -45 -105 0 -105 0 0 -163 c0 -217 -3 -212
137 -203 l104 6 -3 -42 c-3 -37 -7 -43 -33 -51 -16 -5 -75 -9 -130 -10 -81 -2
-106 1 -128 16 -57 37 -62 55 -65 259 l-4 188 -39 0 -39 0 0 45 0 45 43 0 44
0 12 70 13 70 44 0 44 0 0 -70z m-1636 -7 c14 -38 38 -103 54 -146 l28 -77 54
145 54 145 73 0 73 0 -2 -337 -3 -338 -52 -3 -53 -3 0 232 c0 128 -3 230 -6
227 -3 -3 -25 -57 -48 -119 l-43 -114 -49 0 -48 0 -48 120 -47 120 0 -232 -1
-233 -55 0 -55 0 0 340 0 340 74 0 74 0 26 -67z m722 -74 c78 -37 88 -67 94
-269 3 -96 9 -181 13 -187 5 -7 21 -13 38 -13 26 0 29 -3 29 -30 0 -24 -6 -33
-26 -40 -64 -25 -148 0 -160 45 l-6 25 -34 -29 c-57 -51 -149 -65 -224 -35
-50 20 -78 59 -86 117 -20 146 63 217 253 217 92 0 93 0 73 72 -12 42 -37 60
-85 60 -54 0 -76 -12 -91 -49 l-15 -35 -52 7 c-29 4 -55 10 -58 14 -13 13 12
70 43 100 41 40 73 49 172 50 61 1 89 -4 122 -20z m2145 -14 c23 -16 53 -50
67 -75 15 -28 22 -36 19 -20 -3 14 -9 46 -12 73 l-7 47 59 0 60 0 23 -157 c13
-87 26 -166 30 -176 4 -13 17 16 38 87 l33 106 63 0 63 0 12 -42 c7 -24 22
-74 34 -113 l21 -70 21 135 c12 74 25 156 29 183 l7 47 60 0 c32 0 59 -2 59
-5 0 -12 -91 -521 -95 -533 -3 -9 -23 -12 -67 -10 l-62 3 -41 139 -42 139 -27
-89 c-15 -49 -35 -113 -44 -141 l-16 -53 -63 0 c-35 0 -63 1 -64 3 0 1 -13 74
-29 162 -15 88 -28 143 -29 123 l-1 -38 -185 0 -185 0 0 -27 c0 -41 36 -106
69 -126 55 -32 142 -11 171 42 12 24 28 26 83 10 44 -12 45 -22 12 -71 -69
-102 -277 -117 -378 -27 -58 50 -81 114 -82 224 0 98 17 161 58 210 48 59 95
76 204 73 83 -3 95 -6 134 -33z"/>
<path d="M5165 3561 c-56 -23 -79 -91 -73 -215 5 -104 22 -147 67 -166 58 -24
129 18 149 88 15 55 8 195 -12 236 -26 52 -82 77 -131 57z"/>
<path d="M4580 3436 l0 -246 53 0 c75 0 135 32 167 90 20 37 25 62 28 143 4
89 2 101 -22 151 -31 64 -76 91 -168 102 l-58 7 0 -247z"/>
<path d="M3591 2453 c-42 -22 -69 -57 -77 -100 l-6 -33 127 0 127 0 -6 25
c-25 101 -93 145 -165 108z"/>
<path d="M5171 2453 c-42 -22 -69 -57 -77 -100 l-6 -33 127 0 127 0 -6 25
c-25 101 -93 145 -165 108z"/>
<path d="M2520 1137 c-25 -8 -40 -23 -53 -49 -16 -33 -17 -40 -3 -72 43 -104
206 -12 206 117 0 14 -9 17 -57 16 -32 0 -74 -5 -93 -12z"/>
<path d="M4651 1353 c-42 -22 -69 -57 -77 -100 l-6 -33 127 0 127 0 -6 25
c-25 101 -93 145 -165 108z"/>
</g>
</svg>
